<svg width="200" height="200" viewBox="0 0 200 200" fill="none" xmlns="http://www.w3.org/2000/svg">
<g clip-path="url(#clip0_129_341)">
<path d="M86.8734 -0.0497326C87.0683 -0.0517636 87.2633 -0.0537945 87.4641 -0.055887C91.7128 -0.0910447 95.828 -0.0666921 100 0.833243C100.184 0.871142 100.367 0.909042 100.556 0.94809C108.961 2.72205 116.98 6.77131 123.253 12.6594C123.819 13.1891 124.407 13.6865 125.001 14.1848C125.417 14.5832 125.417 14.5832 125.769 15.0739C126.17 15.627 126.535 16.0476 127.083 16.4582C127.977 16.5768 128.777 16.3601 129.648 16.1588C130.186 16.06 130.723 15.9655 131.262 15.8788C131.407 15.8554 131.552 15.832 131.701 15.8078C136.54 15.0827 142.091 15.2678 146.875 16.2499C147.08 16.2913 147.285 16.3327 147.497 16.3753C154.003 17.7286 160.355 20.146 165.833 23.9582C165.964 24.0489 166.095 24.1396 166.23 24.233C170.596 27.2904 174.744 30.9501 177.879 35.285C178.129 35.631 178.386 35.9719 178.644 36.3126C186.505 46.8343 189.677 60.331 187.914 73.2812C187.718 74.5848 187.467 75.8733 187.188 77.1614C187.145 77.3616 187.102 77.5617 187.058 77.768C186.875 78.585 186.683 79.3346 186.366 80.1114C186.095 80.778 185.959 81.1574 186.042 81.8749C186.643 82.9681 187.543 83.866 188.377 84.7827C196.584 94.1351 199.466 107.816 198.703 119.916C197.87 130.008 193.919 140.213 187.292 147.917C187.1 148.146 186.908 148.377 186.716 148.607C184.736 150.97 182.636 153.087 180.208 155C179.983 155.184 179.758 155.368 179.533 155.552C173.799 160.216 165.976 164.389 158.542 165.208C158.493 165.47 158.443 165.732 158.393 166.003C158.127 167.191 157.669 168.266 157.175 169.375C157.081 169.586 156.988 169.796 156.892 170.013C154.945 174.359 152.543 178.503 149.375 182.083C149.243 182.237 149.112 182.392 148.976 182.55C146.528 185.358 143.878 188.05 140.833 190.208C140.679 190.319 140.525 190.429 140.366 190.543C136.198 193.502 131.727 195.877 126.875 197.5C126.701 197.558 126.528 197.616 126.349 197.676C124.452 198.3 122.542 198.818 120.586 199.219C120.433 199.25 120.28 199.282 120.122 199.314C116.904 199.931 113.712 200.085 110.443 200.078C110.237 200.078 110.031 200.078 109.82 200.078C106.482 200.069 103.27 199.888 100 199.167C99.689 199.098 99.689 199.098 99.3717 199.028C97.9685 198.707 96.5862 198.333 95.2084 197.917C94.9474 197.838 94.9474 197.838 94.6811 197.758C88.051 195.716 81.8064 192.089 76.7473 187.34C76.1815 186.811 75.5927 186.313 74.9994 185.815C74.5834 185.417 74.5834 185.417 74.2314 184.926C73.8296 184.373 73.4649 183.952 72.9167 183.542C72.023 183.423 71.2228 183.64 70.3516 183.841C69.8139 183.94 69.2775 184.034 68.7378 184.121C68.5932 184.144 68.4485 184.168 68.2994 184.192C63.4603 184.917 57.9094 184.732 53.125 183.75C52.9199 183.709 52.7148 183.667 52.5035 183.624C44.6811 181.997 37.2965 178.761 31.0417 173.75C30.8414 173.592 30.641 173.434 30.4346 173.271C27.3668 170.771 24.4445 167.927 22.1214 164.715C21.8706 164.369 21.6138 164.028 21.3558 163.687C13.4947 153.166 10.3231 139.669 12.0858 126.719C12.4678 124.177 12.9739 121.644 13.8282 119.219C14.0128 118.49 14.0233 118.244 13.6589 117.577C13.2516 117.078 12.8245 116.612 12.3759 116.149C11.8579 115.59 11.4124 114.978 10.9636 114.362C10.8681 114.231 10.7727 114.101 10.6743 113.966C2.89421 103.155 -0.37412 89.3781 1.76894 76.2244C2.28192 73.326 3.00017 70.4908 3.95837 67.7082C4.00366 67.5759 4.04894 67.4435 4.0956 67.3071C6.59884 60.0733 10.801 53.8611 16.0417 48.3332C16.1899 48.1761 16.3382 48.019 16.4909 47.8572C17.58 46.7346 18.7748 45.7611 20 44.7916C20.2012 44.6286 20.4023 44.4655 20.6096 44.2976C22.5277 42.7743 24.5667 41.4664 26.6667 40.2082C26.7982 40.1293 26.9296 40.0503 27.0651 39.969C31.3567 37.435 36.5151 35.4995 41.4584 34.7916C41.5075 34.5295 41.5567 34.2674 41.6073 33.9973C41.8726 32.8089 42.3314 31.7342 42.8256 30.6249C42.9188 30.4143 43.0121 30.2036 43.1082 29.9866C45.0551 25.6407 47.4572 21.4971 50.625 17.9166C50.7566 17.7624 50.8882 17.6083 51.0238 17.4495C53.4723 14.6417 56.1223 11.9495 59.1667 9.79158C59.3209 9.68113 59.475 9.57069 59.6338 9.4569C67.5312 3.85017 77.0885 0.0350461 86.8734 -0.0497326ZM62.1494 24.966C54.8422 33.2315 52.088 42.5889 52.0267 53.4474C52.0233 53.9216 52.0199 54.3958 52.0164 54.87C51.9865 59.175 51.9706 63.4802 51.9583 67.7853C51.9566 68.3598 51.9549 68.9342 51.9532 69.5086C51.9528 69.6514 51.9524 69.7941 51.9519 69.9412C51.9447 72.2586 51.9296 74.576 51.9114 76.8933C51.8928 79.277 51.8823 81.6607 51.8789 84.0444C51.8768 85.3812 51.8711 86.7177 51.8567 88.0543C51.8434 89.3101 51.8399 90.5655 51.8439 91.8213C51.8437 92.282 51.8399 92.7426 51.8322 93.2032C51.6906 95.5716 51.6906 95.5716 52.5409 97.6736C53.0743 98.0548 53.5572 98.3066 54.1667 98.5416C54.4812 98.7331 54.4812 98.7331 54.802 98.9286C55.0652 99.0726 55.0652 99.0726 55.3337 99.2195C55.5362 99.3313 55.7388 99.4432 55.9475 99.5585C56.2648 99.7319 56.2648 99.7319 56.5886 99.9088C58.375 100.897 60.1519 101.899 61.9141 102.93C62.1169 103.048 62.3197 103.167 62.5287 103.289C63.5875 103.91 64.6443 104.534 65.6999 105.16C65.9126 105.286 66.1252 105.412 66.3443 105.542C66.7514 105.784 67.1583 106.026 67.5649 106.269C67.7452 106.376 67.9255 106.483 68.1112 106.593C68.2703 106.688 68.4294 106.783 68.5933 106.881C68.9192 107.1 68.9192 107.1 69.1667 107.083C69.1669 106.902 69.1669 106.902 69.1671 106.717C69.1746 99.5493 69.1864 92.3817 69.2038 85.2141C69.2059 84.3531 69.2079 83.4921 69.2099 82.631C69.2105 82.3739 69.2105 82.3739 69.2112 82.1116C69.2176 79.3378 69.2212 76.564 69.2236 73.7902C69.2262 70.943 69.2319 68.0958 69.2406 65.2487C69.2458 63.4925 69.2486 61.7363 69.2483 59.9801C69.2482 58.775 69.2513 57.57 69.2567 56.3649C69.2598 55.6701 69.2611 54.9755 69.2596 54.2807C69.2582 53.5259 69.2619 52.7714 69.2669 52.0167C69.2653 51.799 69.2637 51.5814 69.262 51.3571C69.2841 49.4663 69.7694 47.7756 71.0844 46.3704C71.8155 45.7276 72.6434 45.2657 73.4896 44.7916C73.789 44.6193 73.789 44.6193 74.0945 44.4436C74.5221 44.1978 74.9504 43.9533 75.3793 43.7098C76.0403 43.334 76.6989 42.9543 77.3568 42.5731C78.4927 41.9153 79.63 41.26 80.7679 40.6056C81.9014 39.9533 83.034 39.2995 84.1667 38.6457C84.6181 38.3853 85.0695 38.1249 85.5209 37.8645C85.7443 37.7356 85.9677 37.6067 86.198 37.4739C99.0625 30.052 99.0625 30.052 99.7398 29.6613C100.191 29.4012 100.641 29.1411 101.092 28.881C102.23 28.2241 103.369 27.5677 104.509 26.9123C105.633 26.2652 106.757 25.6164 107.88 24.966C108.328 24.7069 108.776 24.4482 109.224 24.1899C109.874 23.8147 110.523 23.4376 111.172 23.0598C111.37 22.9462 111.567 22.8325 111.771 22.7155C111.95 22.6108 112.129 22.5061 112.313 22.3982C112.47 22.3068 112.628 22.2154 112.79 22.1212C112.956 21.9993 112.956 21.9993 113.125 21.8749C113.125 21.7374 113.125 21.5999 113.125 21.4582C112.844 21.1938 112.844 21.1938 112.467 20.9366C112.325 20.8347 112.182 20.7329 112.035 20.628C111.879 20.5195 111.723 20.4111 111.563 20.2994C111.402 20.1875 111.242 20.0755 111.076 19.9602C95.9624 9.57229 74.7527 11.2091 62.1494 24.966ZM115.676 35.6414C114.617 36.2682 113.548 36.8769 112.479 37.4853C111.861 37.8363 111.245 38.1881 110.628 38.5399C110.506 38.6095 110.384 38.679 110.259 38.7507C108.309 39.864 106.365 40.9891 104.42 42.1126C103.294 42.7631 102.168 43.4127 101.042 44.0624C100.59 44.3228 100.139 44.5832 99.6875 44.8437C91.5625 49.5312 91.5625 49.5312 90.885 49.922C90.4351 50.1816 89.9853 50.4412 89.5354 50.7007C88.3839 51.3652 87.2321 52.0293 86.08 52.6928C85.8446 52.8284 85.6092 52.964 85.3667 53.1037C84.9262 53.3575 84.4857 53.6112 84.045 53.8647C83.6372 54.0997 83.2318 54.3391 82.8293 54.5831C82.2969 54.895 81.7605 55.1398 81.1899 55.3738C79.4716 56.1163 79.4716 56.1163 78.3439 57.5313C78.039 58.8616 78.1354 60.2174 78.1958 61.5705C78.2025 62.0066 78.2075 62.4427 78.211 62.8788C78.2245 64.0214 78.2592 65.1624 78.2985 66.3044C78.3349 67.4717 78.351 68.6393 78.3688 69.807C78.4066 72.0943 78.467 74.3803 78.5417 76.6666C82.3185 74.6094 86.0626 72.5001 89.773 70.3254C91.0866 69.5557 92.4048 68.794 93.724 68.0338C93.949 67.9041 94.1741 67.7744 94.4059 67.6407C94.8621 67.3779 95.3183 67.115 95.7746 66.8522C96.9056 66.2006 98.0361 65.5481 99.1667 64.8957C100.526 64.1116 101.884 63.3277 103.244 62.5447C105.43 61.2852 107.614 60.0226 109.792 58.7499C112.196 57.3452 114.607 55.9531 117.02 54.5633C117.945 54.0301 118.87 53.496 119.794 52.9618C120.471 52.5713 121.148 52.1816 121.825 51.7919C122.68 51.2991 123.534 50.803 124.386 50.3043C124.778 50.0769 125.169 49.8496 125.56 49.6223C125.736 49.5186 125.911 49.4149 126.092 49.308C127.452 48.5209 128.68 48.0666 130.273 48.0468C130.488 48.0409 130.702 48.035 130.922 48.0289C132.957 48.2914 134.716 49.4652 136.458 50.4817C136.715 50.6303 136.973 50.7788 137.23 50.9272C137.757 51.2319 138.285 51.5374 138.812 51.8436C139.533 52.2626 140.255 52.6794 140.978 53.0956C141.872 53.6103 142.766 54.1257 143.659 54.6418C144.561 55.1633 145.464 55.6841 146.367 56.2043C148.76 57.5831 151.15 58.9676 153.535 60.3609C155.735 61.6456 157.942 62.9176 160.15 64.1893C161.281 64.8409 162.411 65.4934 163.542 66.1457C164.808 66.8762 166.074 67.6067 167.34 68.3368C167.705 68.547 168.07 68.7573 168.434 68.9676C168.888 69.2294 169.342 69.4912 169.797 69.7529C171.256 70.5945 172.712 71.4414 174.167 72.2916C174.789 71.6688 174.738 70.9318 174.818 70.0911C174.835 69.9125 174.852 69.734 174.87 69.55C175.73 59.9697 172.771 50.1625 166.667 42.7082C166.023 41.9647 165.364 41.2418 164.684 40.5315C164.475 40.3126 164.267 40.0928 164.059 39.8719C157.455 32.8547 148.057 29.2213 138.542 28.7499C130.126 28.5125 122.782 31.3961 115.676 35.6414ZM25.0391 58.2421C17.88 65.6129 14.4401 75.449 14.5394 85.6103C14.6985 92.8914 17.2139 100.136 21.4584 106.042C21.6936 106.37 21.6936 106.37 21.9336 106.706C25.0883 110.972 29.0946 114.389 33.681 117.014C34.2474 117.338 34.8121 117.665 35.3768 117.992C36.5399 118.665 37.7044 119.336 38.8694 120.006C40.0108 120.662 41.1512 121.321 42.2917 121.979C42.7431 122.239 43.1945 122.5 43.6459 122.76C48.1598 125.364 52.6737 127.969 57.1875 130.573C57.411 130.702 57.6345 130.831 57.8647 130.963C58.3158 131.224 58.7668 131.484 59.2179 131.744C60.3513 132.398 61.4849 133.052 62.6189 133.705C65.0836 135.125 67.5456 136.55 69.9997 137.989C70.3773 138.21 70.7555 138.429 71.1346 138.648C71.4894 138.855 71.8407 139.068 72.1883 139.287C73.0716 139.869 73.0716 139.869 74.078 139.912C74.2448 139.804 74.4115 139.695 74.5834 139.583C74.8315 139.451 75.0803 139.32 75.3296 139.189C75.6239 139.026 75.9176 138.862 76.211 138.698C76.3735 138.607 76.5359 138.516 76.7033 138.423C78.4815 137.425 80.24 136.393 81.9996 135.363C83.409 134.538 84.8225 133.72 86.237 132.904C86.4602 132.775 86.6834 132.646 86.9133 132.513C88.1444 131.803 89.3798 131.102 90.625 130.417C89.915 129.824 89.2012 129.337 88.396 128.883C88.0481 128.685 88.0481 128.685 87.6932 128.484C87.5094 128.38 87.5094 128.38 87.3219 128.275C86.7986 127.98 86.2765 127.684 85.7543 127.387C85.4842 127.234 85.214 127.081 84.9437 126.927C83.6304 126.183 82.3225 125.43 81.0157 124.674C80.5686 124.416 80.1216 124.158 79.6745 123.9C79.4538 123.772 79.233 123.645 79.0056 123.513C78.326 123.121 77.6462 122.729 76.9662 122.337C74.7881 121.082 72.6124 119.824 70.4427 118.555C68.5114 117.425 66.571 116.312 64.627 115.204C62.7359 114.126 60.853 113.035 58.9746 111.935C57.378 111.002 55.7736 110.082 54.1667 109.167C52.1349 108.009 50.1076 106.843 48.091 105.659C47.0227 105.032 45.9508 104.412 44.8715 103.804C44.6446 103.675 44.4177 103.546 44.184 103.414C43.7517 103.168 43.3181 102.924 42.8831 102.683C40.8777 101.537 39.8492 100.346 39.1667 98.1249C39.0606 97.4212 39.0523 96.7344 39.0586 96.0236C39.057 95.8228 39.0555 95.6219 39.0538 95.415C39.0496 94.7477 39.0513 94.0806 39.053 93.4133C39.0512 92.9327 39.049 92.4521 39.0465 91.9715C39.0407 90.6709 39.0399 89.3703 39.0401 88.0696C39.0395 86.7089 39.0342 85.3481 39.0293 83.9874C39.0217 81.7047 39.0172 79.4221 39.0148 77.1395C39.0124 74.7892 39.0082 72.439 39.0016 70.0887C39.001 69.8711 39.001 69.8711 39.0004 69.6491C38.9984 68.9213 38.9963 68.1935 38.9942 67.4656C38.977 61.4354 38.9658 55.4052 38.9584 49.3749C34.2679 49.3749 28.216 55.1535 25.0391 58.2421ZM124.986 60.5736C124.772 60.6985 124.557 60.8234 124.336 60.9521C124.104 61.089 123.872 61.226 123.633 61.3671C123.389 61.5097 123.145 61.6521 122.901 61.7943C122.393 62.0903 121.886 62.3869 121.379 62.6839C120.229 63.3576 119.072 64.022 117.917 64.6874C117.472 64.9443 117.027 65.2012 116.582 65.4581C115.744 65.9419 114.905 66.4244 114.064 66.9053C113.56 67.1941 113.056 67.4834 112.552 67.7727C112.195 67.9777 111.837 68.1819 111.479 68.3861C111.264 68.5097 111.048 68.6332 110.827 68.7605C110.637 68.8693 110.446 68.9782 110.25 69.0903C109.772 69.3631 109.772 69.3631 109.375 69.7916C109.523 69.8762 109.672 69.9608 109.825 70.048C114.476 72.7016 119.119 75.3678 123.743 78.0693C125.943 79.354 128.15 80.626 130.358 81.8976C131.489 82.5492 132.619 83.2017 133.75 83.8541C134.201 84.1145 134.653 84.3749 135.104 84.6353C141.875 88.5416 141.875 88.5416 148.646 92.4478C148.982 92.6414 148.982 92.6414 149.324 92.8389C149.772 93.0976 150.22 93.3565 150.668 93.6156C151.719 94.2226 152.77 94.8276 153.825 95.4255C154.198 95.6369 154.571 95.8489 154.943 96.0611C155.41 96.3269 155.878 96.5914 156.346 96.8546C159.396 98.5947 159.396 98.5947 160.182 100.13C160.263 100.283 160.345 100.436 160.428 100.594C160.744 101.312 160.859 101.957 160.862 102.739C160.863 102.91 160.865 103.082 160.866 103.258C160.866 103.446 160.866 103.633 160.866 103.826C160.867 104.026 160.868 104.225 160.869 104.431C160.873 105.102 160.874 105.773 160.876 106.445C160.878 106.925 160.88 107.405 160.882 107.886C160.888 109.192 160.892 110.498 160.897 111.803C160.901 113.168 160.907 114.532 160.912 115.896C160.922 118.186 160.93 120.476 160.938 122.766C160.946 125.125 160.955 127.484 160.964 129.842C160.965 129.988 160.965 130.133 160.966 130.283C160.969 131.012 160.972 131.742 160.974 132.471C160.998 138.522 161.02 144.574 161.042 150.625C161.338 150.529 161.633 150.432 161.929 150.335C162.094 150.281 162.258 150.227 162.428 150.172C163.15 149.918 163.825 149.593 164.505 149.245C164.718 149.136 164.718 149.136 164.936 149.026C173.866 144.421 180.635 136.627 183.747 127.028C185.634 120.97 186.053 114.573 184.792 108.333C184.757 108.161 184.722 107.988 184.687 107.811C183.327 101.305 180.188 95.2456 175.625 90.4166C175.385 90.1353 175.147 89.8532 174.909 89.5702C172.105 86.3767 168.428 84.191 164.792 82.0832C164.584 81.9629 164.377 81.8425 164.164 81.7186C162.802 80.9286 161.438 80.143 160.072 79.3589C158.936 78.706 157.802 78.0508 156.667 77.3957C156.215 77.1353 155.764 76.8749 155.313 76.6145C150.799 74.0103 146.285 71.4062 141.771 68.802C141.547 68.6731 141.324 68.5441 141.094 68.4113C140.643 68.1511 140.192 67.8908 139.741 67.6306C138.607 66.9766 137.473 66.3228 136.34 65.6697C134.054 64.353 131.771 63.0332 129.492 61.7056C129.28 61.5821 129.068 61.4585 128.849 61.3312C128.653 61.2171 128.458 61.103 128.256 60.9854C128.084 60.8853 127.913 60.7852 127.736 60.682C127.373 60.4651 127.018 60.2344 126.667 59.9999C125.915 59.9999 125.631 60.1953 124.986 60.5736ZM98.7468 75.7234C98.5403 75.8406 98.3338 75.9578 98.121 76.0786C97.7879 76.2729 97.7879 76.2729 97.448 76.4713C97.216 76.6039 96.9841 76.7366 96.7452 76.8733C96.0229 77.2877 95.3029 77.7058 94.5834 78.1249C94.37 78.2486 94.1567 78.3724 93.9369 78.4999C92.9072 79.0972 91.879 79.6973 90.8521 80.2994C89.5384 81.0691 88.2202 81.8308 86.9011 82.5911C86.6798 82.7186 86.4586 82.8462 86.2306 82.9777C85.1593 83.5952 84.0876 84.2121 83.0155 84.8283C82.5098 85.119 82.0041 85.41 81.4985 85.7011C81.1388 85.908 80.7788 86.1145 80.4188 86.3211C80.203 86.4453 79.9872 86.5695 79.7649 86.6975C79.5735 86.8074 79.3821 86.9174 79.185 87.0306C78.7677 87.2571 78.7677 87.2571 78.5417 87.4999C78.5141 87.8192 78.5006 88.1397 78.4928 88.46C78.4874 88.6677 78.482 88.8753 78.4764 89.0892C78.4716 89.319 78.4668 89.5487 78.4619 89.7854C78.4561 90.0259 78.4504 90.2665 78.4445 90.5143C78.3945 92.7385 78.3643 94.9632 78.3411 97.1879C78.3252 98.6833 78.3026 100.178 78.2631 101.673C78.2286 102.978 78.2068 104.282 78.2 105.587C78.196 106.277 78.1841 106.966 78.1609 107.656C77.9455 110.432 77.9455 110.432 78.885 112.93C79.717 113.631 80.6319 114.049 81.6489 114.416C82.289 114.662 82.8398 115.002 83.4237 115.36C83.8406 115.601 84.2575 115.841 84.6745 116.081C85.143 116.351 85.6115 116.62 86.08 116.89C86.3152 117.026 86.5504 117.161 86.7927 117.301C87.9316 117.957 89.07 118.614 90.2084 119.271C90.6546 119.528 91.1008 119.786 91.5471 120.043C92.376 120.521 93.2049 121 94.0337 121.478C94.4064 121.693 94.7791 121.908 95.1518 122.123C95.6195 122.393 96.0872 122.663 96.5548 122.933C96.9683 123.171 97.3825 123.409 97.7974 123.645C98.1255 123.837 98.4497 124.036 98.766 124.246C99.1713 124.524 99.1713 124.524 99.7917 124.792C100.66 124.572 101.388 124.211 102.158 123.76C102.371 123.637 102.583 123.513 102.802 123.386C103.029 123.253 103.256 123.119 103.49 122.982C103.731 122.841 103.972 122.701 104.213 122.56C104.714 122.269 105.214 121.977 105.714 121.684C106.862 121.014 108.015 120.351 109.167 119.687C109.616 119.428 110.066 119.168 110.516 118.909C111.434 118.379 112.354 117.85 113.273 117.322C113.506 117.188 113.738 117.054 113.978 116.916C114.41 116.668 114.842 116.42 115.275 116.172C115.685 115.936 116.092 115.694 116.496 115.446C117.087 115.097 117.686 114.831 118.32 114.571C120.369 113.659 120.369 113.659 121.706 111.944C122.113 110.284 122.053 108.581 122.026 106.882C122.03 106.332 122.035 105.781 122.041 105.231C122.051 104.08 122.043 102.93 122.024 101.779C122.004 100.455 122.015 99.1332 122.042 97.8091C122.067 96.527 122.067 95.2463 122.055 93.9641C122.053 93.4226 122.058 92.8811 122.07 92.3397C122.203 89.4781 122.203 89.4781 121.003 87.0104C119.9 86.1507 118.697 85.5602 117.412 85.0223C116.711 84.721 116.083 84.3516 115.433 83.9534C115.028 83.7204 114.624 83.4876 114.219 83.2551C113.76 82.9909 113.301 82.7267 112.842 82.4625C112.613 82.3309 112.384 82.1994 112.149 82.0639C111.24 81.541 110.332 81.0171 109.424 80.4931C108.977 80.2352 108.53 79.9775 108.083 79.72C107.024 79.1094 105.965 78.4974 104.909 77.8808C104.409 77.5891 103.909 77.2982 103.408 77.0073C103.055 76.8013 102.702 76.5942 102.349 76.387C102.135 76.2628 101.921 76.1386 101.701 76.0106C101.513 75.9007 101.325 75.7908 101.131 75.6775C100.121 75.1566 99.7477 75.1475 98.7468 75.7234ZM130.833 92.9166C130.833 93.0979 130.833 93.0979 130.833 93.2829C130.826 100.45 130.814 107.618 130.796 114.786C130.794 115.647 130.792 116.508 130.79 117.369C130.79 117.626 130.79 117.626 130.789 117.888C130.782 120.662 130.779 123.436 130.776 126.21C130.774 129.057 130.768 131.904 130.759 134.751C130.754 136.507 130.751 138.264 130.752 140.02C130.752 141.225 130.749 142.43 130.743 143.635C130.74 144.33 130.739 145.024 130.74 145.719C130.742 146.474 130.738 147.228 130.733 147.983C130.735 148.201 130.736 148.418 130.738 148.643C130.716 150.534 130.231 152.224 128.916 153.629C128.185 154.272 127.357 154.734 126.51 155.208C126.311 155.323 126.111 155.438 125.906 155.556C125.478 155.802 125.05 156.047 124.621 156.29C123.96 156.666 123.301 157.046 122.643 157.427C121.507 158.085 120.37 158.74 119.232 159.394C118.099 160.046 116.966 160.7 115.833 161.354C115.382 161.614 114.931 161.875 114.479 162.135C114.256 162.264 114.032 162.393 113.802 162.526C100.938 169.948 100.938 169.948 100.26 170.339C99.8095 170.599 99.3588 170.859 98.9081 171.119C97.7697 171.776 96.6309 172.432 95.4916 173.087C94.3667 173.735 93.2428 174.383 92.1198 175.034C91.672 175.293 91.224 175.552 90.7758 175.81C90.1257 176.185 89.4768 176.562 88.8282 176.94C88.6304 177.054 88.4327 177.167 88.229 177.284C88.0502 177.389 87.8714 177.494 87.6872 177.602C87.5297 177.693 87.3721 177.784 87.2098 177.879C87.0441 178.001 87.0441 178.001 86.875 178.125C86.875 178.262 86.875 178.4 86.875 178.542C93.0381 184.43 103.029 187.09 111.349 186.914C116.875 186.722 122.15 185.41 127.083 182.917C127.277 182.821 127.277 182.821 127.475 182.723C129.5 181.717 131.329 180.538 133.125 179.167C133.315 179.024 133.504 178.881 133.7 178.734C140.028 173.776 144.63 166.729 146.667 158.958C146.729 158.723 146.729 158.723 146.792 158.482C147.279 156.564 147.566 154.648 147.726 152.676C147.744 152.459 147.762 152.242 147.78 152.018C147.955 149.723 147.988 147.434 147.997 145.133C148 144.671 148.004 144.209 148.007 143.747C148.018 142.252 148.025 140.758 148.031 139.263C148.033 138.745 148.035 138.227 148.037 137.709C148.046 135.555 148.054 133.402 148.059 131.248C148.065 128.315 148.077 125.382 148.1 122.448C148.118 120.138 148.127 117.828 148.13 115.517C148.131 114.224 148.136 112.931 148.15 111.638C148.162 110.425 148.165 109.213 148.16 108C148.16 107.555 148.163 107.111 148.171 106.666C148.304 104.367 148.304 104.367 147.459 102.336C146.927 101.955 146.44 101.698 145.833 101.458C145.519 101.267 145.519 101.267 145.198 101.071C145.023 100.975 144.847 100.879 144.666 100.78C144.464 100.668 144.261 100.557 144.053 100.441C143.841 100.326 143.629 100.21 143.411 100.091C141.625 99.1027 139.848 98.1011 138.086 97.0702C137.883 96.9516 137.68 96.833 137.471 96.7108C136.413 96.09 135.356 95.4658 134.3 94.8396C134.088 94.7135 133.875 94.5874 133.656 94.4576C133.249 94.2159 132.842 93.9738 132.435 93.7311C132.255 93.624 132.075 93.5169 131.889 93.4065C131.73 93.3116 131.571 93.2167 131.407 93.1189C131.081 92.8997 131.081 92.8997 130.833 92.9166ZM120.235 123.907C120.019 124.032 119.804 124.157 119.581 124.285C119.346 124.422 119.11 124.559 118.867 124.7C118.621 124.843 118.375 124.985 118.13 125.128C117.618 125.424 117.106 125.721 116.594 126.017C115.439 126.687 114.282 127.354 113.125 128.021C112.674 128.281 112.222 128.542 111.771 128.802C96.875 137.396 96.875 137.396 81.9792 145.989C81.7555 146.119 81.5317 146.248 81.3012 146.381C80.8531 146.639 80.4049 146.897 79.9567 147.155C78.9021 147.763 77.8488 148.372 76.7997 148.989C76.3061 149.279 75.8119 149.567 75.3176 149.856C74.9706 150.059 74.6246 150.264 74.2786 150.469C72.7976 151.333 71.5883 151.929 69.8438 151.953C69.6515 151.959 69.4592 151.965 69.2611 151.971C67.219 151.698 65.4798 150.66 63.737 149.622C63.3795 149.413 63.0219 149.203 62.6643 148.994C62.2961 148.778 61.9284 148.561 61.5608 148.344C60.4203 147.673 59.2722 147.014 58.125 146.354C57.6736 146.094 57.2222 145.833 56.7709 145.573C56.5474 145.444 56.324 145.315 56.0938 145.182C53.6112 143.75 51.1285 142.318 48.6459 140.885C48.4224 140.756 48.1989 140.627 47.9687 140.495C47.5176 140.234 47.0666 139.974 46.6155 139.714C45.4821 139.06 44.3485 138.406 43.2146 137.753C41.0371 136.498 38.8619 135.24 36.6927 133.971C34.5941 132.744 32.4855 131.535 30.3729 130.332C30.1435 130.201 29.9141 130.07 29.6778 129.936C29.3444 129.746 29.3444 129.746 29.0044 129.553C28.5402 129.286 28.0789 129.013 27.6201 128.737C27.3946 128.601 27.1692 128.466 26.9369 128.326C26.7346 128.202 26.5323 128.079 26.3239 127.952C26.162 127.871 26.0001 127.791 25.8334 127.708C25.6959 127.777 25.5584 127.846 25.4167 127.917C25.3132 128.503 25.2384 129.07 25.1823 129.661C25.1651 129.84 25.1479 130.018 25.1301 130.202C24.258 139.992 27.1568 149.817 33.4122 157.433C33.9547 158.066 34.5238 158.672 35.1077 159.267C35.4419 159.609 35.7701 159.957 36.0987 160.304C42.589 167.083 52.1075 171.024 61.4584 171.25C69.7739 171.397 77.0159 168.735 84.0747 164.543C85.3622 163.779 86.6607 163.034 87.9622 162.294C90.1122 161.072 92.2541 159.836 94.389 158.587C96.5815 157.305 98.7821 156.037 100.983 154.769C102.114 154.117 103.244 153.465 104.375 152.812C104.826 152.552 105.278 152.292 105.729 152.031C105.953 151.902 106.176 151.773 106.406 151.641C108.438 150.469 108.438 150.469 109.115 150.078C109.565 149.818 110.015 149.559 110.465 149.299C111.616 148.635 112.768 147.97 113.92 147.307C114.156 147.171 114.391 147.036 114.633 146.896C115.074 146.642 115.514 146.389 115.955 146.135C116.363 145.9 116.768 145.661 117.171 145.417C117.703 145.105 118.24 144.86 118.81 144.626C120.528 143.884 120.528 143.884 121.656 142.468C121.961 141.138 121.865 139.782 121.804 138.429C121.798 137.993 121.793 137.557 121.789 137.121C121.776 135.978 121.741 134.837 121.702 133.695C121.665 132.528 121.649 131.361 121.631 130.193C121.593 127.906 121.533 125.62 121.458 123.333C121.028 123.333 120.592 123.7 120.235 123.907Z" fill="white"/>
</g>
<defs>
<clipPath id="clip0_129_341">
<rect width="200" height="200" fill="white"/>
</clipPath>
</defs>
</svg>
